<svg width="41" height="33" viewBox="0 0 41 33" fill="none" xmlns="http://www.w3.org/2000/svg">
<path d="M3.48023 4.72725C-0.385229 8.95125 0.00398092 14.3756 0.0162719 14.4375L0.0162733 30.9375C0.0162734 31.4845 0.232094 32.0091 0.616257 32.3959C1.00042 32.7827 1.52145 33 2.06474 33L14.3556 33C16.615 33 18.4525 31.1499 18.4525 28.875L18.4525 14.4375C18.4525 13.8905 18.2367 13.3659 17.8525 12.9791C17.4684 12.5923 16.9473 12.375 16.404 12.375L10.0988 12.375C10.1421 11.3553 10.4447 10.3639 10.9776 9.49575C12.0183 7.84369 13.9786 6.7155 16.8076 6.14625L18.4525 5.81625L18.4525 -1.84353e-06L16.404 -1.66445e-06C10.7031 -1.16606e-06 6.35424 1.59019 3.48023 4.72725ZM26.0277 4.72725C22.1602 8.95125 22.5515 14.3756 22.5638 14.4375L22.5638 30.9375C22.5638 31.4845 22.7796 32.0091 23.1638 32.3959C23.5479 32.7827 24.069 33 24.6122 33L36.9031 33C39.1625 33 41 31.1499 41 28.875L41 14.4375C41 13.8905 40.7842 13.3659 40.4 12.9791C40.0159 12.5923 39.4948 12.375 38.9515 12.375L32.6463 12.375C32.6896 11.3553 32.9922 10.3639 33.5251 9.49575C34.5658 7.84368 36.5261 6.7155 39.3551 6.14625L41 5.81625L41 -3.8147e-06L38.9515 -3.63561e-06C33.2506 -3.13723e-06 28.9017 1.59018 26.0277 4.72725Z" fill="#3C3C3C"/>
</svg>
