<svg width="17" height="22" viewBox="0 0 17 22" fill="none" xmlns="http://www.w3.org/2000/svg">
<path d="M8.5 0C6.24648 0.00270323 4.08602 0.914156 2.49253 2.53442C0.899053 4.15468 0.00266759 6.35146 9.04313e-06 8.64286C-0.00269001 10.5154 0.598857 12.3371 1.71237 13.8286C1.71237 13.8286 1.94419 14.1389 1.98205 14.1837L8.5 22L15.021 14.1798C15.055 14.1381 15.2876 13.8286 15.2876 13.8286L15.2884 13.8262C16.4014 12.3354 17.0026 10.5145 17 8.64286C16.9973 6.35146 16.1009 4.15468 14.5075 2.53442C12.914 0.914156 10.7535 0.00270323 8.5 0ZM8.5 11.7857C7.88868 11.7857 7.29108 11.6014 6.78278 11.256C6.27449 10.9107 5.87832 10.4199 5.64438 9.84558C5.41043 9.27129 5.34922 8.63937 5.46849 8.02972C5.58775 7.42006 5.88213 6.86006 6.3144 6.42052C6.74667 5.98098 7.29742 5.68166 7.89699 5.56039C8.49657 5.43912 9.11805 5.50136 9.68284 5.73924C10.2476 5.97711 10.7304 6.37994 11.07 6.89678C11.4096 7.41362 11.5909 8.02126 11.5909 8.64286C11.5899 9.47608 11.2639 10.2749 10.6845 10.864C10.105 11.4532 9.31945 11.7847 8.5 11.7857Z" fill="#F8F8F8"/>
</svg>
