<svg width="20" height="18" viewBox="0 0 20 18" fill="none" xmlns="http://www.w3.org/2000/svg">
<path d="M18.9573 12.7609H6.34498L6.97824 11.402L17.5001 11.3819C17.856 11.3819 18.1609 11.1142 18.2245 10.7438L19.6816 2.15099C19.7197 1.92562 19.6626 1.69357 19.5228 1.51729C19.4537 1.43054 19.3675 1.36066 19.2702 1.3125C19.1729 1.26433 19.0669 1.23904 18.9594 1.23838L5.57405 1.19152L5.45968 0.624768C5.38767 0.263295 5.07845 0 4.72687 0H1.45466C1.25638 0 1.06622 0.0829846 0.926007 0.230698C0.785799 0.378412 0.707031 0.578755 0.707031 0.787653C0.707031 0.996552 0.785799 1.19689 0.926007 1.34461C1.06622 1.49232 1.25638 1.57531 1.45466 1.57531H4.12114L4.62098 4.07884L5.8515 10.3555L4.26728 13.08C4.18501 13.1969 4.13546 13.3358 4.12423 13.481C4.113 13.6261 4.14054 13.7716 4.20374 13.9011C4.33082 14.1666 4.58709 14.334 4.87089 14.334H6.20096C5.9174 14.7307 5.76425 15.214 5.76466 15.7107C5.76466 16.9736 6.73891 18 7.93766 18C9.13641 18 10.1107 16.9736 10.1107 15.7107C10.1107 15.2131 9.95394 14.7289 9.67437 14.334H13.0864C12.8028 14.7307 12.6497 15.214 12.6501 15.7107C12.6501 16.9736 13.6243 18 14.8231 18C16.0218 18 16.9961 16.9736 16.9961 15.7107C16.9961 15.2131 16.8393 14.7289 16.5598 14.334H18.9594C19.3703 14.334 19.707 13.9814 19.707 13.5463C19.7058 13.3376 19.6263 13.1379 19.4858 12.9908C19.3454 12.8436 19.1554 12.761 18.9573 12.7609ZM5.88538 2.74451L18.0805 2.78691L16.8859 9.8334L7.30652 9.85125L5.88538 2.74451ZM7.93766 16.4158C7.56914 16.4158 7.2684 16.0989 7.2684 15.7107C7.2684 15.3224 7.56914 15.0056 7.93766 15.0056C8.30618 15.0056 8.60693 15.3224 8.60693 15.7107C8.60693 15.8977 8.53642 16.077 8.41091 16.2092C8.28539 16.3415 8.11516 16.4158 7.93766 16.4158ZM14.8231 16.4158C14.4546 16.4158 14.1538 16.0989 14.1538 15.7107C14.1538 15.3224 14.4546 15.0056 14.8231 15.0056C15.1916 15.0056 15.4923 15.3224 15.4923 15.7107C15.4923 15.8977 15.4218 16.077 15.2963 16.2092C15.1708 16.3415 15.0006 16.4158 14.8231 16.4158Z" fill="white"/>
</svg>
