<svg width="19" height="19" viewBox="0 0 19 19" fill="none" xmlns="http://www.w3.org/2000/svg">
<circle cx="9.5" cy="9.5" r="9" stroke="#070707"/>
<path d="M13.8064 7.43451C13.6823 7.15379 13.5033 6.89941 13.2795 6.6856C13.0556 6.47116 12.7915 6.30074 12.5017 6.18362C12.2012 6.06169 11.8788 5.99927 11.5534 6.00001C11.0969 6.00001 10.6515 6.12211 10.2644 6.35275C10.1718 6.40793 10.0838 6.46853 10.0005 6.53455C9.91712 6.46853 9.82914 6.40793 9.73654 6.35275C9.34946 6.12211 8.90404 6.00001 8.4475 6.00001C8.11876 6.00001 7.80021 6.06151 7.49925 6.18362C7.20847 6.3012 6.9464 6.47034 6.72138 6.6856C6.49728 6.89917 6.31826 7.15361 6.19447 7.43451C6.06575 7.72666 6 8.03689 6 8.35618C6 8.65737 6.06297 8.97122 6.18798 9.2905C6.29263 9.55732 6.44264 9.8341 6.63433 10.1136C6.93807 10.5559 7.35571 11.0172 7.87429 11.4848C8.73365 12.2599 9.58467 12.7954 9.62079 12.8171L9.84025 12.9545C9.93749 13.0152 10.0625 13.0152 10.1597 12.9545L10.3792 12.8171C10.4153 12.7945 11.2654 12.2599 12.1257 11.4848C12.6443 11.0172 13.0619 10.5559 13.3657 10.1136C13.5573 9.8341 13.7083 9.55732 13.812 9.2905C13.937 8.97122 14 8.65737 14 8.35618C14.0009 8.03689 13.9352 7.72666 13.8064 7.43451Z" fill="#ED0202"/>
</svg>
