<svg width="19" height="19" viewBox="0 0 19 19" fill="none" xmlns="http://www.w3.org/2000/svg">
<circle cx="9.5" cy="9.5" r="9" stroke="#070707"/>
<path d="M12.1257 11.4848C11.2654 12.2599 10.4153 12.7945 10.3792 12.8171L10.1597 12.9545M12.1257 11.4848C12.6443 11.0172 13.0619 10.5559 13.3657 10.1136M12.1257 11.4848L11.791 11.1133C11.791 11.1134 11.7909 11.1134 11.7909 11.1134M12.1257 11.4848L11.7909 11.1134M13.3657 10.1136C13.5573 9.8341 13.7083 9.55732 13.812 9.2905C13.937 8.97122 14 8.65737 14 8.35618C14.0009 8.03689 13.9352 7.72666 13.8064 7.43451M13.3657 10.1136L12.9533 9.83077M13.3657 10.1136L12.9535 9.83053C12.9534 9.83061 12.9534 9.83069 12.9533 9.83077M13.8064 7.43451C13.6823 7.15379 13.5033 6.89941 13.2795 6.6856C13.0556 6.47116 12.7915 6.30074 12.5017 6.18362C12.2012 6.06169 11.8788 5.99927 11.5534 6.00001C11.0969 6.00001 10.6515 6.12211 10.2644 6.35275C10.1718 6.40793 10.0838 6.46853 10.0005 6.53455C9.91712 6.46853 9.82914 6.40793 9.73654 6.35275C9.34946 6.12211 8.90404 6.00001 8.4475 6.00001C8.11876 6.00001 7.80021 6.06151 7.49925 6.18362C7.20847 6.3012 6.9464 6.47034 6.72138 6.6856C6.49728 6.89917 6.31826 7.15361 6.19447 7.43451M13.8064 7.43451L13.3489 7.63611C13.3489 7.63617 13.3489 7.63622 13.349 7.63628M13.8064 7.43451L13.3492 7.63671C13.3491 7.63657 13.349 7.63643 13.349 7.63628M6.19447 7.43451C6.06575 7.72666 6 8.03689 6 8.35618C6 8.65737 6.06297 8.97122 6.18798 9.2905M6.19447 7.43451L6.65201 7.63615M6.19447 7.43451L6.65202 7.63611C6.74899 7.41609 6.88955 7.21602 7.06632 7.04756L7.06632 7.04756L7.06701 7.0469C7.24594 6.87574 7.45423 6.74115 7.68669 6.64715L7.68722 6.64694C7.92748 6.54946 8.18212 6.50001 8.4475 6.50001C8.81494 6.50001 9.17179 6.59828 9.4806 6.78228L9.48062 6.78229C9.55448 6.8263 9.6242 6.87436 9.68997 6.92647L10.0005 7.17245L10.3109 6.92647C10.3767 6.87436 10.4464 6.8263 10.5203 6.78229L10.5203 6.78228C10.8291 6.59828 11.186 6.50001 11.5534 6.50001L11.5545 6.50001C11.8154 6.49942 12.0734 6.54946 12.3137 6.64693L12.3143 6.64719C12.5458 6.74073 12.756 6.87656 12.9338 7.04676L12.9342 7.04714C13.1109 7.21597 13.2516 7.41618 13.349 7.63628M6.18798 9.2905C6.29263 9.55732 6.44264 9.8341 6.63433 10.1136M6.18798 9.2905L6.65357 9.1082M6.18798 9.2905L6.65347 9.10795C6.6535 9.10804 6.65353 9.10812 6.65357 9.1082M6.63433 10.1136C6.93807 10.5559 7.35571 11.0172 7.87429 11.4848C8.73365 12.2599 9.58467 12.7954 9.62079 12.8171L9.84025 12.9545M6.63433 10.1136L7.04667 9.83077C7.04661 9.83069 7.04656 9.83061 7.0465 9.83053M6.63433 10.1136L7.0465 9.83053M9.84025 12.9545C9.93749 13.0152 10.0625 13.0152 10.1597 12.9545M9.84025 12.9545L10 12.6995L10.1597 12.9545M9.84025 12.9545L9.99959 12.6989L9.8943 12.5308L9.89527 12.5302M10.1597 12.9545L10.0004 12.6989L10.1057 12.5308L10.1047 12.5302M9.89527 12.5302L10 12.6982L10.1047 12.5302M9.89527 12.5302L10 12.4646M9.89527 12.5302C9.95992 12.4899 10.0401 12.4899 10.1047 12.5302M10.1047 12.5302L10 12.4646M10 12.4646L10.1138 12.3933L10.1139 12.3933C10.1402 12.3768 10.9621 11.8601 11.7909 11.1134M10 12.4646L9.88622 12.3933L9.88626 12.3933L9.87837 12.3885C9.8791 12.389 9.82654 12.3563 9.73038 12.2924C9.63658 12.23 9.50502 12.1403 9.34815 12.0275C9.03363 11.8014 8.62141 11.4853 8.20918 11.1135L8.20913 11.1134C7.71122 10.6645 7.32237 10.2322 7.0465 9.83053M7.0465 9.83053C6.87271 9.57711 6.74212 9.33393 6.65357 9.1082M7.0465 9.83053L6.65201 7.63615M7.0465 9.83053L6.65201 7.63615M6.65357 9.1082C6.54828 8.83932 6.5 8.58722 6.5 8.35618C6.5 8.10678 6.5511 7.86517 6.65201 7.63615M13.349 7.63628C13.4498 7.86528 13.5007 8.10636 13.5 8.35473V8.35618C13.5 8.58722 13.4517 8.83931 13.3464 9.1082L13.346 9.10935C13.2589 9.33347 13.1279 9.57629 12.9533 9.83077M12.9533 9.83077C12.6775 10.2324 12.2887 10.6646 11.7909 11.1134" stroke="black"/>
</svg>
