<svg width="19" height="18" viewBox="0 0 19 18" fill="none" xmlns="http://www.w3.org/2000/svg">
<path d="M9.44107 0C4.366 0 0.250977 4.02991 0.250977 9C0.250977 13.9701 4.366 18 9.44107 18C14.5161 18 18.6312 13.9701 18.6312 9C18.6312 4.02991 14.5161 0 9.44107 0ZM13.0617 11.7663L12.475 12.5498C12.4623 12.5668 12.4462 12.5813 12.4277 12.5922C12.4092 12.6032 12.3887 12.6104 12.3674 12.6136C12.346 12.6168 12.3243 12.6158 12.3033 12.6107C12.2824 12.6056 12.2626 12.5965 12.2453 12.5839L8.85233 10.1612C8.83119 10.1463 8.81401 10.1267 8.80223 10.104C8.79045 10.0812 8.78441 10.0561 8.78463 10.0306V4.5C8.78463 4.41161 8.85848 4.33929 8.94874 4.33929H9.93544C10.0257 4.33929 10.0996 4.41161 10.0996 4.5V9.4721L13.0248 11.5433C13.0986 11.5935 13.1151 11.694 13.0617 11.7663Z" fill="#F8F8F8"/>
</svg>
