<svg width="23" height="18" viewBox="0 0 23 18" fill="none" xmlns="http://www.w3.org/2000/svg">
<path d="M22.9287 2.11613C22.1106 2.475 21.2388 2.71288 20.33 2.82838C21.265 2.27013 21.9786 1.39287 22.3141 0.3355C21.4423 0.85525 20.4798 1.22238 19.4541 1.42725C18.6263 0.545875 17.4466 0 16.1596 0C13.6626 0 11.6523 2.02675 11.6523 4.51137C11.6523 4.86888 11.6826 5.21263 11.7568 5.53988C8.00721 5.357 4.68934 3.55988 2.46046 0.82225C2.07134 1.49738 1.84309 2.27012 1.84309 3.102C1.84309 4.664 2.64746 6.04862 3.84646 6.85025C3.12184 6.8365 2.41096 6.62613 1.80871 6.29475C1.80871 6.3085 1.80871 6.32638 1.80871 6.34425C1.80871 8.536 3.37209 10.3565 5.42221 10.7759C5.05509 10.8763 4.65496 10.9244 4.23971 10.9244C3.95096 10.9244 3.65946 10.9079 3.38584 10.8474C3.97021 12.6335 5.62846 13.9466 7.60021 13.9893C6.06571 15.1896 4.11734 15.9129 2.00809 15.9129C1.63821 15.9129 1.28346 15.8964 0.928711 15.851C2.92659 17.1394 5.29434 17.875 7.84771 17.875C16.1472 17.875 20.6847 11 20.6847 5.04075C20.6847 4.84137 20.6778 4.64887 20.6682 4.45775C21.5633 3.8225 22.3155 3.02913 22.9287 2.11613Z" fill="white"/>
</svg>
