<svg width="19" height="18" viewBox="0 0 19 18" fill="none" xmlns="http://www.w3.org/2000/svg">
<path d="M16.4467 8.60934H18.3804C18.3804 3.70147 14.6358 0 9.66895 0V1.9134C13.5964 1.9134 16.4467 4.72896 16.4467 8.60934Z" fill="white"/>
<path d="M9.66896 5.56276C11.7023 5.56276 12.5696 6.42091 12.5696 8.43285H14.5033C14.5033 5.3475 12.7871 3.64936 9.66896 3.64936V5.56276ZM12.9776 10.7701C12.7918 10.603 12.5477 10.5139 12.2967 10.5215C12.0458 10.5292 11.8077 10.6331 11.6327 10.8112L9.31896 13.1656C8.76204 13.0604 7.64241 12.715 6.4899 11.5775C5.33739 10.4362 4.98835 9.32545 4.88489 8.77822L7.26243 6.48788C7.44266 6.31484 7.54778 6.0792 7.55554 5.83083C7.5633 5.58246 7.47309 5.34084 7.304 5.15711L3.73142 1.27005C3.56226 1.08574 3.32715 0.973951 3.07603 0.95841C2.82491 0.942869 2.57756 1.0248 2.38651 1.18681L0.2884 2.96723C0.121239 3.13323 0.021466 3.35417 0.00800757 3.58813C-0.00649546 3.8273 -0.28302 9.49288 4.15684 13.888C8.03012 17.7195 12.8819 17.9998 14.2181 17.9998C14.4134 17.9998 14.5333 17.9941 14.5652 17.9922C14.8016 17.9791 15.0248 17.8799 15.1917 17.7138L16.9901 15.6368C17.1539 15.4479 17.2369 15.2032 17.2214 14.9547C17.2059 14.7062 17.0931 14.4735 16.9069 14.306L12.9776 10.7701Z" fill="white"/>
</svg>
