<svg width="19" height="15" viewBox="0 0 19 15" fill="none" xmlns="http://www.w3.org/2000/svg">
<path d="M0 4.15714V3.56339C0 3.0715 0.39874 2.67276 0.890625 2.67276H14.25V0.891513C14.25 0.0985971 15.2111 -0.297545 15.7704 0.26173L18.7392 3.23048C19.0869 3.57831 19.0869 4.14222 18.7392 4.49001L15.7704 7.45876C15.2132 8.01585 14.25 7.62523 14.25 6.82901V5.04776H0.890625C0.39874 5.04776 0 4.64902 0 4.15714ZM18.1094 9.79776H4.75V8.01651C4.75 7.22556 3.79028 6.82605 3.22959 7.38673L0.260842 10.3555C-0.0869473 10.7033 -0.0869473 11.2672 0.260842 11.615L3.22959 14.5838C3.78727 15.1414 4.75 14.7495 4.75 13.954V12.1728H18.1094C18.6013 12.1728 19 11.774 19 11.2821V10.6884C19 10.1965 18.6013 9.79776 18.1094 9.79776Z" fill="#070707"/>
</svg>
