<svg width="23" height="22" viewBox="0 0 23 22" fill="none" xmlns="http://www.w3.org/2000/svg">
<path fill-rule="evenodd" clip-rule="evenodd" d="M7.80371 0H16.0537C19.8501 0 22.9287 3.07862 22.9287 6.875V15.125C22.9287 18.9214 19.8501 22 16.0537 22H7.80371C4.00734 22 0.928711 18.9214 0.928711 15.125V6.875C0.928711 3.07862 4.00734 0 7.80371 0ZM16.0537 19.9375C18.7075 19.9375 20.8662 17.7787 20.8662 15.125V6.875C20.8662 4.22125 18.7075 2.0625 16.0537 2.0625H7.80371C5.14996 2.0625 2.99121 4.22125 2.99121 6.875V15.125C2.99121 17.7787 5.14996 19.9375 7.80371 19.9375H16.0537Z" fill="white"/>
<path fill-rule="evenodd" clip-rule="evenodd" d="M6.42871 11C6.42871 7.96263 8.89134 5.5 11.9287 5.5C14.9661 5.5 17.4287 7.96263 17.4287 11C17.4287 14.0374 14.9661 16.5 11.9287 16.5C8.89134 16.5 6.42871 14.0374 6.42871 11ZM8.49121 11C8.49121 12.8948 10.034 14.4375 11.9287 14.4375C13.8235 14.4375 15.3662 12.8948 15.3662 11C15.3662 9.10388 13.8235 7.5625 11.9287 7.5625C10.034 7.5625 8.49121 9.10388 8.49121 11Z" fill="white"/>
<circle cx="17.8412" cy="5.08761" r="0.732875" fill="white"/>
</svg>
