<svg width="277" height="166" viewBox="0 0 277 166" fill="none" xmlns="http://www.w3.org/2000/svg">
<path d="M72.76 117.088C75.2773 117.557 77.3467 118.816 78.968 120.864C80.5893 122.912 81.4 125.259 81.4 127.904C81.4 130.293 80.8027 132.405 79.608 134.24C78.456 136.032 76.7707 137.44 74.552 138.464C72.3333 139.488 69.7093 140 66.68 140H47.416V95.328H65.848C68.8773 95.328 71.48 95.8187 73.656 96.8C75.8747 97.7813 77.5387 99.1467 78.648 100.896C79.8 102.645 80.376 104.629 80.376 106.848C80.376 109.451 79.672 111.627 78.264 113.376C76.8987 115.125 75.064 116.363 72.76 117.088ZM56.376 113.76H64.568C66.7013 113.76 68.344 113.291 69.496 112.352C70.648 111.371 71.224 109.984 71.224 108.192C71.224 106.4 70.648 105.013 69.496 104.032C68.344 103.051 66.7013 102.56 64.568 102.56H56.376V113.76ZM65.4 132.704C67.576 132.704 69.2613 132.192 70.456 131.168C71.6933 130.144 72.312 128.693 72.312 126.816C72.312 124.896 71.672 123.403 70.392 122.336C69.112 121.227 67.384 120.672 65.208 120.672H56.376V132.704H65.4ZM121.501 121.504C121.501 122.784 121.416 123.936 121.245 124.96H95.325C95.5383 127.52 96.4343 129.525 98.013 130.976C99.5917 132.427 101.533 133.152 103.837 133.152C107.165 133.152 109.533 131.723 110.941 128.864H120.605C119.581 132.277 117.618 135.093 114.717 137.312C111.816 139.488 108.253 140.576 104.029 140.576C100.616 140.576 97.5437 139.829 94.813 138.336C92.125 136.8 90.013 134.645 88.477 131.872C86.9837 129.099 86.237 125.899 86.237 122.272C86.237 118.603 86.9837 115.381 88.477 112.608C89.9703 109.835 92.061 107.701 94.749 106.208C97.437 104.715 100.53 103.968 104.029 103.968C107.4 103.968 110.408 104.693 113.053 106.144C115.741 107.595 117.81 109.664 119.261 112.352C120.754 114.997 121.501 118.048 121.501 121.504ZM112.221 118.944C112.178 116.64 111.346 114.805 109.725 113.44C108.104 112.032 106.12 111.328 103.773 111.328C101.554 111.328 99.677 112.011 98.141 113.376C96.6477 114.699 95.7303 116.555 95.389 118.944H112.221ZM137.001 92.64V140H128.041V92.64H137.001ZM178.814 121.504C178.814 122.784 178.728 123.936 178.558 124.96H152.638C152.851 127.52 153.747 129.525 155.326 130.976C156.904 132.427 158.846 133.152 161.15 133.152C164.478 133.152 166.846 131.723 168.254 128.864H177.918C176.894 132.277 174.931 135.093 172.03 137.312C169.128 139.488 165.566 140.576 161.342 140.576C157.928 140.576 154.856 139.829 152.126 138.336C149.438 136.8 147.326 134.645 145.79 131.872C144.296 129.099 143.549 125.899 143.549 122.272C143.549 118.603 144.296 115.381 145.79 112.608C147.283 109.835 149.374 107.701 152.062 106.208C154.75 104.715 157.843 103.968 161.342 103.968C164.712 103.968 167.72 104.693 170.366 106.144C173.054 107.595 175.123 109.664 176.574 112.352C178.067 114.997 178.814 118.048 178.814 121.504ZM169.534 118.944C169.491 116.64 168.659 114.805 167.038 113.44C165.416 112.032 163.432 111.328 161.086 111.328C158.867 111.328 156.99 112.011 155.454 113.376C153.96 114.699 153.043 116.555 152.702 118.944H169.534ZM189.898 100.32C188.319 100.32 186.996 99.8293 185.93 98.848C184.906 97.824 184.394 96.5653 184.394 95.072C184.394 93.5787 184.906 92.3413 185.93 91.36C186.996 90.336 188.319 89.824 189.898 89.824C191.476 89.824 192.778 90.336 193.802 91.36C194.868 92.3413 195.402 93.5787 195.402 95.072C195.402 96.5653 194.868 97.824 193.802 98.848C192.778 99.8293 191.476 100.32 189.898 100.32ZM194.314 104.544V140H185.354V104.544H194.314ZM217.95 131.744L226.91 104.544H236.446L223.326 140H212.446L199.39 104.544H208.99L217.95 131.744ZM274.439 121.504C274.439 122.784 274.353 123.936 274.183 124.96H248.263C248.476 127.52 249.372 129.525 250.951 130.976C252.529 132.427 254.471 133.152 256.775 133.152C260.103 133.152 262.471 131.723 263.879 128.864H273.543C272.519 132.277 270.556 135.093 267.655 137.312C264.753 139.488 261.191 140.576 256.967 140.576C253.553 140.576 250.481 139.829 247.751 138.336C245.063 136.8 242.951 134.645 241.415 131.872C239.921 129.099 239.174 125.899 239.174 122.272C239.174 118.603 239.921 115.381 241.415 112.608C242.908 109.835 244.999 107.701 247.687 106.208C250.375 104.715 253.468 103.968 256.967 103.968C260.337 103.968 263.345 104.693 265.991 106.144C268.679 107.595 270.748 109.664 272.199 112.352C273.692 114.997 274.439 118.048 274.439 121.504ZM265.159 118.944C265.116 116.64 264.284 114.805 262.663 113.44C261.041 112.032 259.057 111.328 256.711 111.328C254.492 111.328 252.615 112.011 251.079 113.376C249.585 114.699 248.668 116.555 248.327 118.944H265.159Z" fill="#0E0E0E"/>
<path d="M41.7858 128.108L41.9342 128.269H42.1528H59H60.1597L59.3636 127.425L45.7435 113L54.1787 104.46L54.323 104.314V104.108V87.7483V86.521L53.4653 87.3989L37.2445 104.003L29.6543 95.994L31.2166 94.8365C31.217 94.8362 31.2175 94.8359 31.2179 94.8356C37.1456 90.4976 40.1959 85.5563 40.1959 80.0081C40.1959 75.1804 38.4428 71.2014 34.9389 68.1122C31.4995 65.0281 27.1341 63.5 21.8835 63.5C17.0869 63.5 12.849 65.0362 9.19018 68.1026L9.19017 68.1026L9.18707 68.1052C5.55446 71.2003 3.7466 75.362 3.7466 80.5359C3.7466 84.8763 6.00137 89.4483 10.3699 94.2417C10.37 94.2418 10.3701 94.242 10.3702 94.2421L10.8746 94.7982C7.44349 97.3465 4.85498 99.8855 3.1312 102.42L3.12978 102.422C1.3686 105.04 0.5 108.19 0.5 111.848C0.5 116.564 2.28527 120.705 5.82303 124.252L5.82298 124.252L5.82906 124.258C9.45007 127.766 14.264 129.5 20.2163 129.5C26.3479 129.5 31.7895 127.127 36.5249 122.423L41.7858 128.108ZM19.0192 103.809L19.0285 103.802L19.0375 103.795L19.1137 103.734L28.1246 113.423C25.6592 115.885 23.1417 117.066 20.5673 117.066C18.763 117.066 17.2858 116.469 16.0993 115.282C14.9575 114.081 14.3986 112.708 14.3986 111.145C14.3986 108.549 15.8739 106.102 19.0192 103.809ZM20.1415 85.8222L20.141 85.8217C18.0666 83.6268 17.1188 81.7228 17.1188 80.0961C17.1188 78.431 17.5866 77.2689 18.4417 76.5126L18.4431 76.5113C19.4008 75.658 20.5388 75.2307 21.8835 75.2307C23.2746 75.2307 24.4333 75.7077 25.3903 76.6671L25.3954 76.6721L25.4006 76.677C26.3525 77.5783 26.8238 78.6778 26.8238 80.0081C26.8238 82.0262 25.7479 83.8855 23.4327 85.5844L21.3335 87.0874L20.1415 85.8222Z" stroke="#0E0E0E"/>
<path d="M54.12 25.328V70H45.16V40.944L33.192 70H26.408L14.376 40.944V70H5.416V25.328H15.592L29.8 58.544L44.008 25.328H54.12ZM60.6745 52.144C60.6745 48.56 61.3785 45.3813 62.7865 42.608C64.2372 39.8347 66.1785 37.7013 68.6105 36.208C71.0852 34.7147 73.8372 33.968 76.8665 33.968C79.5118 33.968 81.8158 34.5013 83.7785 35.568C85.7838 36.6347 87.3838 37.9787 88.5785 39.6V34.544H97.6025V70H88.5785V64.816C87.4265 66.48 85.8265 67.8667 83.7785 68.976C81.7732 70.0427 79.4478 70.576 76.8025 70.576C73.8158 70.576 71.0852 69.808 68.6105 68.272C66.1785 66.736 64.2372 64.5813 62.7865 61.808C61.3785 58.992 60.6745 55.7707 60.6745 52.144ZM88.5785 52.272C88.5785 50.096 88.1518 48.24 87.2985 46.704C86.4452 45.1253 85.2932 43.9307 83.8425 43.12C82.3918 42.2667 80.8345 41.84 79.1705 41.84C77.5065 41.84 75.9705 42.2453 74.5625 43.056C73.1545 43.8667 72.0025 45.0613 71.1065 46.64C70.2532 48.176 69.8265 50.0107 69.8265 52.144C69.8265 54.2773 70.2532 56.1547 71.1065 57.776C72.0025 59.3547 73.1545 60.5707 74.5625 61.424C76.0132 62.2773 77.5492 62.704 79.1705 62.704C80.8345 62.704 82.3918 62.2987 83.8425 61.488C85.2932 60.6347 86.4452 59.44 87.2985 57.904C88.1518 56.3253 88.5785 54.448 88.5785 52.272ZM127.346 70L115.314 54.896V70H106.354V22.64H115.314V49.584L127.218 34.544H138.866L123.25 52.336L138.994 70H127.346ZM176.689 51.504C176.689 52.784 176.603 53.936 176.433 54.96H150.513C150.726 57.52 151.622 59.5253 153.201 60.976C154.779 62.4267 156.721 63.152 159.025 63.152C162.353 63.152 164.721 61.7227 166.129 58.864H175.793C174.769 62.2773 172.806 65.0933 169.905 67.312C167.003 69.488 163.441 70.576 159.217 70.576C155.803 70.576 152.731 69.8293 150.001 68.336C147.313 66.8 145.201 64.6453 143.665 61.872C142.171 59.0987 141.424 55.8987 141.424 52.272C141.424 48.6027 142.171 45.3813 143.665 42.608C145.158 39.8347 147.249 37.7013 149.937 36.208C152.625 34.7147 155.718 33.968 159.217 33.968C162.587 33.968 165.595 34.6933 168.241 36.144C170.929 37.5947 172.998 39.664 174.449 42.352C175.942 44.9973 176.689 48.048 176.689 51.504ZM167.409 48.944C167.366 46.64 166.534 44.8053 164.913 43.44C163.291 42.032 161.307 41.328 158.961 41.328C156.742 41.328 154.865 42.0107 153.329 43.376C151.835 44.6987 150.918 46.5547 150.577 48.944H167.409Z" fill="#0E0E0E"/>
</svg>
